<?xml version="1.0" encoding="utf-8"?>
<!-- Generator: Adobe Illustrator 27.6.1, SVG Export Plug-In . SVG Version: 6.00 Build 0)  -->
<svg version="1.1" id="Layer_1" xmlns="http://www.w3.org/2000/svg" xmlns:xlink="http://www.w3.org/1999/xlink" x="0px" y="0px"
	 viewBox="0 0 400 400" style="enable-background:new 0 0 400 400;" xml:space="preserve">
<style type="text/css">
	.st0{fill:#669BE8;}
	.st1{fill:#2A7FE2;stroke:#FFFFFF;stroke-width:6;stroke-miterlimit:10;}
	.st2{fill:#2A7FE2;}
</style>
<polygon class="st0" points="320,136 320,263.9 285.8,244.1 285.8,155.8 "/>
<polygon class="st0" points="365.5,109.8 365.5,290.2 325.9,267.3 325.9,132.7 "/>
<polygon class="st0" points="362.6,295.3 206.4,385.4 206.4,339.8 323,272.4 "/>
<polygon class="st0" points="317.1,269 206.4,333 206.4,293.4 282.9,249.3 "/>
<polygon class="st0" points="200.4,339.8 200.4,385.4 44.3,295.3 83.9,272.4 "/>
<polygon class="st0" points="200.4,293.4 200.4,333 89.7,269 124,249.3 "/>
<polygon class="st0" points="121,155.8 121,244.1 86.8,263.9 86.8,136 "/>
<polygon class="st0" points="80.9,132.7 80.9,267.3 41.3,290.2 41.3,109.8 "/>
<polygon class="st0" points="317.1,130.9 282.9,150.7 206.4,106.5 206.4,67 "/>
<polygon class="st0" points="362.6,104.7 323,127.5 206.4,60.2 206.4,14.5 "/>
<polygon class="st0" points="200.4,67 200.4,106.5 124,150.7 89.7,130.9 "/>
<polygon class="st0" points="200.4,14.5 200.4,60.2 83.9,127.5 44.3,104.7 "/>
<polygon class="st0" points="204.3,200 276.7,158.2 276.7,241.8 204.3,283.6 "/>
<polygon class="st0" points="204.3,200 276.7,158.2 204.3,116.4 131.9,158.2 "/>
<polygon class="st0" points="131.9,158.2 204.3,200 204.3,283.6 131.9,241.8 "/>
<g>
	<g>
		<path class="st1" d="M72.5,227.2H54.4v-0.6l27.7-54.1c0.4-0.7,0.7-1.2,1.1-1.5c0.4-0.3,1-0.4,1.8-0.4h19.1c0.9,0,1.5,0.1,1.9,0.4
			c0.4,0.3,0.8,0.8,1.2,1.5l27.5,54.1v0.6H87.3l-4.6-12.3v-1.6h15.5c1.6,0,3,0,4.2,0c1.2,0,2.2,0,3.2,0c0.9,0,1.7,0.1,2.4,0.1
			c0.7,0.1,1.4,0.1,2.1,0.2l0.2-0.5c-0.3-0.6-0.6-1.1-0.9-1.7c-0.3-0.5-0.7-1.2-1.1-2c-0.4-0.8-0.9-1.7-1.4-2.8
			c-0.6-1.1-1.2-2.5-2.1-4.1l-8.7-17.9c-0.2-0.4-0.6-0.5-1.1-0.5h-0.9c-0.5,0-0.8,0.2-1,0.5L72.5,227.2z"/>
		<path class="st1" d="M173.6,202.4H173v-5.8c0-0.6-0.2-0.9-0.7-0.9h-16.9c-2.2,0-3.7,0.5-4.5,1.4c-0.8,1-1.3,2.7-1.3,5.3v6
			c0,2.4,0.4,4.1,1.3,5c0.8,0.9,2.3,1.3,4.5,1.3h29.7v12.5h-32.3c-3.1,0-5.7-0.4-7.9-1.2c-2.2-0.8-3.9-1.9-5.3-3.4
			c-1.4-1.5-2.4-3.3-3-5.3c-0.6-2.1-0.9-4.4-0.9-7v-8.8c0-2.5,0.3-4.9,0.9-7c0.6-2.1,1.6-3.9,3-5.4s3.1-2.6,5.3-3.4
			c2.2-0.8,4.8-1.2,7.9-1.2h30.9c1.4,0,2.1,0.7,2.1,2.1v11L173.6,202.4z"/>
		<path class="st1" d="M223.8,195.3h-12.2v32h-13.8v-32h-5.5l-3.8-10.1v-0.6h9.3v-13.9h13.8v13.9h12.2V195.3z"/>
		<path class="st1" d="M228.9,177.8v-11.3h13.8v11.3H228.9z M228.9,227.2v-42.7h13.8v42.7H228.9z"/>
		<path class="st1" d="M274.3,215.9c0.2,0.3,0.4,0.5,0.8,0.5h0.6c0.3,0,0.5-0.2,0.7-0.5l12.5-31.3h14.4v0.6l-17.9,40.6
			c-0.3,0.6-0.5,1-0.8,1.2c-0.3,0.2-0.8,0.3-1.4,0.3h-15.8c-0.7,0-1.1-0.1-1.4-0.3c-0.3-0.2-0.6-0.6-0.8-1.2l-17.9-40.6v-0.6h14.7
			L274.3,215.9z"/>
		<path class="st1" d="M318.5,202.9H318v6.6c0,2.4,0.4,4.1,1.2,5c0.8,0.9,2.3,1.4,4.6,1.4h29.7v11.4h-32.3c-3.1,0-5.7-0.4-7.9-1.2
			c-2.2-0.8-3.9-1.9-5.3-3.4c-1.4-1.5-2.4-3.3-3-5.3c-0.6-2.1-0.9-4.4-0.9-7v-8.8c0-2.6,0.3-4.9,0.9-7c0.6-2.1,1.6-3.8,3-5.3
			c1.4-1.5,3.1-2.6,5.3-3.4c2.2-0.8,4.8-1.2,7.9-1.2h24.1c3.2,0,5.5,0.8,6.8,2.5c1.4,1.7,2.1,4.3,2.1,7.9v4.1c0,3.2-0.7,5.7-2.1,7.5
			c-1.4,1.9-3.6,2.8-6.8,2.8h-24.4L318.5,202.9z M318,200.8h21c1.6,0,2.4-0.8,2.4-2.5v-1.6c0-0.9-0.2-1.5-0.6-1.9
			c-0.4-0.4-1-0.5-1.8-0.5h-15.2c-2.1,0-3.6,0.5-4.5,1.4c-0.9,0.9-1.3,2.5-1.3,4.9V200.8z"/>
	</g>
	<g>
		<path class="st2" d="M72.5,227.2H54.4v-0.6l27.7-54.1c0.4-0.7,0.7-1.2,1.1-1.5c0.4-0.3,1-0.4,1.8-0.4h19.1c0.9,0,1.5,0.1,1.9,0.4
			c0.4,0.3,0.8,0.8,1.2,1.5l27.5,54.1v0.6H87.3l-4.6-12.3v-1.6h15.5c1.6,0,3,0,4.2,0c1.2,0,2.2,0,3.2,0c0.9,0,1.7,0.1,2.4,0.1
			c0.7,0.1,1.4,0.1,2.1,0.2l0.2-0.5c-0.3-0.6-0.6-1.1-0.9-1.7c-0.3-0.5-0.7-1.2-1.1-2c-0.4-0.8-0.9-1.7-1.4-2.8
			c-0.6-1.1-1.2-2.5-2.1-4.1l-8.7-17.9c-0.2-0.4-0.6-0.5-1.1-0.5h-0.9c-0.5,0-0.8,0.2-1,0.5L72.5,227.2z"/>
		<path class="st2" d="M173.6,202.4H173v-5.8c0-0.6-0.2-0.9-0.7-0.9h-16.9c-2.2,0-3.7,0.5-4.5,1.4c-0.8,1-1.3,2.7-1.3,5.3v6
			c0,2.4,0.4,4.1,1.3,5c0.8,0.9,2.3,1.3,4.5,1.3h29.7v12.5h-32.3c-3.1,0-5.7-0.4-7.9-1.2c-2.2-0.8-3.9-1.9-5.3-3.4
			c-1.4-1.5-2.4-3.3-3-5.3c-0.6-2.1-0.9-4.4-0.9-7v-8.8c0-2.5,0.3-4.9,0.9-7c0.6-2.1,1.6-3.9,3-5.4s3.1-2.6,5.3-3.4
			c2.2-0.8,4.8-1.2,7.9-1.2h30.9c1.4,0,2.1,0.7,2.1,2.1v11L173.6,202.4z"/>
		<path class="st2" d="M223.8,195.3h-12.2v32h-13.8v-32h-5.5l-3.8-10.1v-0.6h9.3v-13.9h13.8v13.9h12.2V195.3z"/>
		<path class="st2" d="M228.9,177.8v-11.3h13.8v11.3H228.9z M228.9,227.2v-42.7h13.8v42.7H228.9z"/>
		<path class="st2" d="M274.3,215.9c0.2,0.3,0.4,0.5,0.8,0.5h0.6c0.3,0,0.5-0.2,0.7-0.5l12.5-31.3h14.4v0.6l-17.9,40.6
			c-0.3,0.6-0.5,1-0.8,1.2c-0.3,0.2-0.8,0.3-1.4,0.3h-15.8c-0.7,0-1.1-0.1-1.4-0.3c-0.3-0.2-0.6-0.6-0.8-1.2l-17.9-40.6v-0.6h14.7
			L274.3,215.9z"/>
		<path class="st2" d="M318.5,202.9H318v6.6c0,2.4,0.4,4.1,1.2,5c0.8,0.9,2.3,1.4,4.6,1.4h29.7v11.4h-32.3c-3.1,0-5.7-0.4-7.9-1.2
			c-2.2-0.8-3.9-1.9-5.3-3.4c-1.4-1.5-2.4-3.3-3-5.3c-0.6-2.1-0.9-4.4-0.9-7v-8.8c0-2.6,0.3-4.9,0.9-7c0.6-2.1,1.6-3.8,3-5.3
			c1.4-1.5,3.1-2.6,5.3-3.4c2.2-0.8,4.8-1.2,7.9-1.2h24.1c3.2,0,5.5,0.8,6.8,2.5c1.4,1.7,2.1,4.3,2.1,7.9v4.1c0,3.2-0.7,5.7-2.1,7.5
			c-1.4,1.9-3.6,2.8-6.8,2.8h-24.4L318.5,202.9z M318,200.8h21c1.6,0,2.4-0.8,2.4-2.5v-1.6c0-0.9-0.2-1.5-0.6-1.9
			c-0.4-0.4-1-0.5-1.8-0.5h-15.2c-2.1,0-3.6,0.5-4.5,1.4c-0.9,0.9-1.3,2.5-1.3,4.9V200.8z"/>
	</g>
</g>
</svg>
