<?xml version="1.0" encoding="utf-8"?>
<!-- Generator: Adobe Illustrator 27.6.1, SVG Export Plug-In . SVG Version: 6.00 Build 0)  -->
<svg version="1.1" id="Layer_1" xmlns="http://www.w3.org/2000/svg" xmlns:xlink="http://www.w3.org/1999/xlink" x="0px" y="0px"
	 viewBox="0 0 400 400" style="enable-background:new 0 0 400 400;" xml:space="preserve">
<style type="text/css">
	.st0{fill:#B8EA68;}
	.st1{stroke:#FFFFFF;stroke-width:4;stroke-miterlimit:10;}
	.st2{fill:#8CC63F;}
</style>
<polygon class="st0" points="320,136 320,263.9 285.8,244.1 285.8,155.8 "/>
<polygon class="st0" points="365.5,109.8 365.5,290.2 325.9,267.3 325.9,132.7 "/>
<polygon class="st0" points="362.6,295.3 206.4,385.4 206.4,339.8 323,272.4 "/>
<polygon class="st0" points="317.1,269 206.4,333 206.4,293.4 282.9,249.3 "/>
<polygon class="st0" points="200.4,339.8 200.4,385.4 44.3,295.3 83.9,272.4 "/>
<polygon class="st0" points="200.4,293.4 200.4,333 89.7,269 124,249.3 "/>
<polygon class="st0" points="121,155.8 121,244.1 86.8,263.9 86.8,136 "/>
<polygon class="st0" points="80.9,132.7 80.9,267.3 41.3,290.2 41.3,109.8 "/>
<polygon class="st0" points="317.1,130.9 282.9,150.7 206.4,106.5 206.4,67 "/>
<polygon class="st0" points="362.6,104.7 323,127.5 206.4,60.2 206.4,14.5 "/>
<polygon class="st0" points="200.4,67 200.4,106.5 124,150.7 89.7,130.9 "/>
<polygon class="st0" points="200.4,14.5 200.4,60.2 83.9,127.5 44.3,104.7 "/>
<polygon class="st0" points="204.3,200 276.7,158.2 276.7,241.8 204.3,283.6 "/>
<polygon class="st0" points="204.3,200 276.7,158.2 204.3,116.4 131.9,158.2 "/>
<polygon class="st0" points="131.9,158.2 204.3,200 204.3,283.6 131.9,241.8 "/>
<g>
	<g>
		<path class="st1" d="M55.1,193.4h-0.5v-6.3c0-0.4-0.2-0.6-0.6-0.6H31.5c-2.6,0-4.4,0.5-5.5,1.6c-1.1,1.1-1.6,3.1-1.6,6v7.9
			c0,2.8,0.5,4.8,1.6,5.9c1,1.1,2.9,1.7,5.5,1.7h35.3v12.2H30.4c-3.5,0-6.5-0.4-8.9-1.3c-2.5-0.9-4.4-2.1-6-3.8
			c-1.5-1.6-2.6-3.6-3.3-5.9c-0.7-2.3-1-4.9-1-7.7v-9.7c0-2.8,0.3-5.4,1-7.7c0.7-2.3,1.8-4.3,3.3-5.9c1.5-1.6,3.5-2.9,6-3.8
			c2.5-0.9,5.4-1.3,8.9-1.3h35.3c1.3,0,1.9,0.6,1.9,1.9v12.2L55.1,193.4z"/>
		<path class="st1" d="M118.3,207.7c0,2.2-0.3,4.1-0.8,5.8c-0.5,1.7-1.4,3.2-2.5,4.4c-1.2,1.2-2.7,2.2-4.5,2.8c-1.9,0.7-4.1,1-6.7,1
			H86.7c-2.6,0-4.9-0.3-6.7-1c-1.8-0.7-3.3-1.6-4.5-2.8c-1.2-1.2-2-2.7-2.5-4.4c-0.5-1.7-0.8-3.7-0.8-5.8v-7.3c0-2.1,0.3-4,0.8-5.8
			c0.5-1.7,1.4-3.2,2.5-4.5c1.2-1.2,2.7-2.2,4.5-2.8c1.8-0.7,4.1-1,6.7-1h17.1c2.6,0,4.9,0.3,6.7,1c1.9,0.7,3.4,1.6,4.5,2.8
			c1.2,1.2,2,2.7,2.5,4.5c0.5,1.7,0.8,3.7,0.8,5.8V207.7z M101.6,211.4c1.9,0,3.1-0.4,3.9-1.1c0.7-0.7,1.1-2.1,1.1-4.1v-5
			c0-2.2-0.4-3.6-1.1-4.4c-0.8-0.8-2-1.2-3.9-1.2H88.9c-1.9,0-3.1,0.4-3.8,1.2c-0.7,0.8-1.1,2.3-1.1,4.4v5c0,2,0.4,3.4,1.1,4.1
			c0.7,0.7,2,1.1,3.8,1.1H101.6z"/>
		<path class="st1" d="M159.9,186.3h18.3c2.6,0,4.9,0.3,6.7,1c1.9,0.7,3.4,1.6,4.5,2.8c1.1,1.2,2,2.7,2.5,4.4
			c0.5,1.7,0.8,3.7,0.8,5.8v21.4H181v-20.7c0-2.1-0.4-3.5-1.2-4.3c-0.8-0.8-2-1.2-3.8-1.2h-11c0.4,1.3,0.6,2.9,0.6,4.8v21.4H154
			v-20.7c0-2.1-0.4-3.5-1.2-4.3c-0.8-0.8-2-1.2-3.8-1.2h-11.3l-1.9-5.2h-0.5v31.4h-11.7v-35.5h27.5c2.5,0,4.7,0.3,6.3,1
			c1.7,0.7,3.1,1.6,4.3,2.7l0.3-0.2c-0.4-0.5-0.8-1-1.2-1.5c-0.4-0.5-0.8-1-1.1-1.6V186.3z"/>
		<path class="st1" d="M210.6,212.7h-0.5v23.6h-11.8V190c0-2.5,1.1-3.8,3.4-3.8h25.6c2.6,0,4.9,0.3,6.7,1c1.9,0.7,3.4,1.6,4.5,2.8
			c1.1,1.2,2,2.7,2.5,4.5c0.5,1.7,0.8,3.7,0.8,5.8v7.3c0,2.2-0.3,4.1-0.8,5.8c-0.5,1.7-1.3,3.2-2.5,4.4c-1.1,1.2-2.6,2.2-4.5,2.8
			c-1.9,0.7-4.1,1-6.7,1h-13.2L210.6,212.7z M211.1,195.6c-0.7,0-1,0.4-1,1.3v14.5h15.1c1.9,0,3.1-0.4,3.9-1.1
			c0.7-0.7,1.1-2.1,1.1-4.1v-5c0-2.1-0.4-3.6-1.1-4.4c-0.7-0.8-2-1.2-3.9-1.2H211.1z"/>
		<path class="st1" d="M247.3,221.8v-50.5H259v50.5H247.3z"/>
		<path class="st1" d="M276.7,201.5h-0.5v5.5c0,2,0.3,3.4,1,4.2c0.7,0.8,2,1.1,3.9,1.1h25.3v9.4H279c-2.6,0-4.9-0.3-6.7-1
			c-1.8-0.7-3.3-1.6-4.5-2.8c-1.2-1.2-2-2.7-2.5-4.4c-0.5-1.7-0.8-3.7-0.8-5.8v-7.3c0-2.2,0.3-4.1,0.8-5.8c0.5-1.7,1.4-3.2,2.5-4.4
			c1.2-1.2,2.7-2.2,4.5-2.8c1.8-0.7,4.1-1,6.7-1h20.5c2.7,0,4.7,0.7,5.8,2.1c1.2,1.4,1.7,3.6,1.7,6.6v3.4c0,2.6-0.6,4.7-1.7,6.3
			c-1.2,1.6-3.1,2.3-5.8,2.3h-20.8L276.7,201.5z M276.2,199.8h17.9c1.3,0,2-0.7,2-2.1v-1.3c0-0.7-0.2-1.3-0.5-1.6
			c-0.3-0.3-0.8-0.5-1.5-0.5h-12.9c-1.8,0-3.1,0.4-3.8,1.1c-0.7,0.8-1.1,2.1-1.1,4V199.8z"/>
		<path class="st1" d="M339.2,195.2h-10.4v26.6h-11.7v-26.6h-4.7l-3.2-8.4v-0.5h7.9v-11.6h11.7v11.6h10.4V195.2z"/>
		<path class="st1" d="M354,201.5h-0.5v5.5c0,2,0.3,3.4,1,4.2c0.7,0.8,2,1.1,3.9,1.1h25.3v9.4h-27.5c-2.6,0-4.9-0.3-6.7-1
			c-1.8-0.7-3.3-1.6-4.5-2.8c-1.2-1.2-2-2.7-2.5-4.4c-0.5-1.7-0.8-3.7-0.8-5.8v-7.3c0-2.2,0.3-4.1,0.8-5.8c0.5-1.7,1.4-3.2,2.5-4.4
			s2.7-2.2,4.5-2.8c1.8-0.7,4.1-1,6.7-1h20.5c2.7,0,4.7,0.7,5.8,2.1c1.2,1.4,1.7,3.6,1.7,6.6v3.4c0,2.6-0.6,4.7-1.7,6.3
			c-1.2,1.6-3.1,2.3-5.8,2.3H356L354,201.5z M353.6,199.8h17.9c1.3,0,2-0.7,2-2.1v-1.3c0-0.7-0.2-1.3-0.5-1.6
			c-0.3-0.3-0.8-0.5-1.5-0.5h-12.9c-1.8,0-3.1,0.4-3.8,1.1c-0.7,0.8-1.1,2.1-1.1,4V199.8z"/>
	</g>
	<g>
		<path class="st2" d="M55.1,193.4h-0.5v-6.3c0-0.4-0.2-0.6-0.6-0.6H31.5c-2.6,0-4.4,0.5-5.5,1.6c-1.1,1.1-1.6,3.1-1.6,6v7.9
			c0,2.8,0.5,4.8,1.6,5.9c1,1.1,2.9,1.7,5.5,1.7h35.3v12.2H30.4c-3.5,0-6.5-0.4-8.9-1.3c-2.5-0.9-4.4-2.1-6-3.8
			c-1.5-1.6-2.6-3.6-3.3-5.9c-0.7-2.3-1-4.9-1-7.7v-9.7c0-2.8,0.3-5.4,1-7.7c0.7-2.3,1.8-4.3,3.3-5.9c1.5-1.6,3.5-2.9,6-3.8
			c2.5-0.9,5.4-1.3,8.9-1.3h35.3c1.3,0,1.9,0.6,1.9,1.9v12.2L55.1,193.4z"/>
		<path class="st2" d="M118.3,207.7c0,2.2-0.3,4.1-0.8,5.8c-0.5,1.7-1.4,3.2-2.5,4.4c-1.2,1.2-2.7,2.2-4.5,2.8c-1.9,0.7-4.1,1-6.7,1
			H86.7c-2.6,0-4.9-0.3-6.7-1c-1.8-0.7-3.3-1.6-4.5-2.8c-1.2-1.2-2-2.7-2.5-4.4c-0.5-1.7-0.8-3.7-0.8-5.8v-7.3c0-2.1,0.3-4,0.8-5.8
			c0.5-1.7,1.4-3.2,2.5-4.5c1.2-1.2,2.7-2.2,4.5-2.8c1.8-0.7,4.1-1,6.7-1h17.1c2.6,0,4.9,0.3,6.7,1c1.9,0.7,3.4,1.6,4.5,2.8
			c1.2,1.2,2,2.7,2.5,4.5c0.5,1.7,0.8,3.7,0.8,5.8V207.7z M101.6,211.4c1.9,0,3.1-0.4,3.9-1.1c0.7-0.7,1.1-2.1,1.1-4.1v-5
			c0-2.2-0.4-3.6-1.1-4.4c-0.8-0.8-2-1.2-3.9-1.2H88.9c-1.9,0-3.1,0.4-3.8,1.2c-0.7,0.8-1.1,2.3-1.1,4.4v5c0,2,0.4,3.4,1.1,4.1
			c0.7,0.7,2,1.1,3.8,1.1H101.6z"/>
		<path class="st2" d="M159.9,186.3h18.3c2.6,0,4.9,0.3,6.7,1c1.9,0.7,3.4,1.6,4.5,2.8c1.1,1.2,2,2.7,2.5,4.4
			c0.5,1.7,0.8,3.7,0.8,5.8v21.4H181v-20.7c0-2.1-0.4-3.5-1.2-4.3c-0.8-0.8-2-1.2-3.8-1.2h-11c0.4,1.3,0.6,2.9,0.6,4.8v21.4H154
			v-20.7c0-2.1-0.4-3.5-1.2-4.3c-0.8-0.8-2-1.2-3.8-1.2h-11.3l-1.9-5.2h-0.5v31.4h-11.7v-35.5h27.5c2.5,0,4.7,0.3,6.3,1
			c1.7,0.7,3.1,1.6,4.3,2.7l0.3-0.2c-0.4-0.5-0.8-1-1.2-1.5c-0.4-0.5-0.8-1-1.1-1.6V186.3z"/>
		<path class="st2" d="M210.6,212.7h-0.5v23.6h-11.8V190c0-2.5,1.1-3.8,3.4-3.8h25.6c2.6,0,4.9,0.3,6.7,1c1.9,0.7,3.4,1.6,4.5,2.8
			c1.1,1.2,2,2.7,2.5,4.5c0.5,1.7,0.8,3.7,0.8,5.8v7.3c0,2.2-0.3,4.1-0.8,5.8c-0.5,1.7-1.3,3.2-2.5,4.4c-1.1,1.2-2.6,2.2-4.5,2.8
			c-1.9,0.7-4.1,1-6.7,1h-13.2L210.6,212.7z M211.1,195.6c-0.7,0-1,0.4-1,1.3v14.5h15.1c1.9,0,3.1-0.4,3.9-1.1
			c0.7-0.7,1.1-2.1,1.1-4.1v-5c0-2.1-0.4-3.6-1.1-4.4c-0.7-0.8-2-1.2-3.9-1.2H211.1z"/>
		<path class="st2" d="M247.3,221.8v-50.5H259v50.5H247.3z"/>
		<path class="st2" d="M276.7,201.5h-0.5v5.5c0,2,0.3,3.4,1,4.2c0.7,0.8,2,1.1,3.9,1.1h25.3v9.4H279c-2.6,0-4.9-0.3-6.7-1
			c-1.8-0.7-3.3-1.6-4.5-2.8c-1.2-1.2-2-2.7-2.5-4.4c-0.5-1.7-0.8-3.7-0.8-5.8v-7.3c0-2.2,0.3-4.1,0.8-5.8c0.5-1.7,1.4-3.2,2.5-4.4
			c1.2-1.2,2.7-2.2,4.5-2.8c1.8-0.7,4.1-1,6.7-1h20.5c2.7,0,4.7,0.7,5.8,2.1c1.2,1.4,1.7,3.6,1.7,6.6v3.4c0,2.6-0.6,4.7-1.7,6.3
			c-1.2,1.6-3.1,2.3-5.8,2.3h-20.8L276.7,201.5z M276.2,199.8h17.9c1.3,0,2-0.7,2-2.1v-1.3c0-0.7-0.2-1.3-0.5-1.6
			c-0.3-0.3-0.8-0.5-1.5-0.5h-12.9c-1.8,0-3.1,0.4-3.8,1.1c-0.7,0.8-1.1,2.1-1.1,4V199.8z"/>
		<path class="st2" d="M339.2,195.2h-10.4v26.6h-11.7v-26.6h-4.7l-3.2-8.4v-0.5h7.9v-11.6h11.7v11.6h10.4V195.2z"/>
		<path class="st2" d="M354,201.5h-0.5v5.5c0,2,0.3,3.4,1,4.2c0.7,0.8,2,1.1,3.9,1.1h25.3v9.4h-27.5c-2.6,0-4.9-0.3-6.7-1
			c-1.8-0.7-3.3-1.6-4.5-2.8c-1.2-1.2-2-2.7-2.5-4.4c-0.5-1.7-0.8-3.7-0.8-5.8v-7.3c0-2.2,0.3-4.1,0.8-5.8c0.5-1.7,1.4-3.2,2.5-4.4
			s2.7-2.2,4.5-2.8c1.8-0.7,4.1-1,6.7-1h20.5c2.7,0,4.7,0.7,5.8,2.1c1.2,1.4,1.7,3.6,1.7,6.6v3.4c0,2.6-0.6,4.7-1.7,6.3
			c-1.2,1.6-3.1,2.3-5.8,2.3H356L354,201.5z M353.6,199.8h17.9c1.3,0,2-0.7,2-2.1v-1.3c0-0.7-0.2-1.3-0.5-1.6
			c-0.3-0.3-0.8-0.5-1.5-0.5h-12.9c-1.8,0-3.1,0.4-3.8,1.1c-0.7,0.8-1.1,2.1-1.1,4V199.8z"/>
	</g>
</g>
</svg>
