<?xml version="1.0" encoding="utf-8"?>
<!-- Generator: Adobe Illustrator 27.6.1, SVG Export Plug-In . SVG Version: 6.00 Build 0)  -->
<svg version="1.1" id="Layer_1" xmlns="http://www.w3.org/2000/svg" xmlns:xlink="http://www.w3.org/1999/xlink" x="0px" y="0px"
	 viewBox="0 0 400 400" style="enable-background:new 0 0 400 400;" xml:space="preserve">
<style type="text/css">
	.st0{fill:#F93838;}
	.st1{fill:#F93838;stroke:#FFFFFF;stroke-width:8;stroke-miterlimit:10;}
	.st2{fill:#AD1A1A;}
</style>
<polygon class="st0" points="320,136 320,263.9 285.8,244.1 285.8,155.8 "/>
<polygon class="st0" points="365.5,109.8 365.5,290.2 325.9,267.3 325.9,132.7 "/>
<polygon class="st0" points="362.6,295.3 206.4,385.4 206.4,339.8 323,272.4 "/>
<polygon class="st0" points="317.1,269 206.4,333 206.4,293.4 282.9,249.3 "/>
<polygon class="st0" points="200.4,339.8 200.4,385.4 44.3,295.3 83.9,272.4 "/>
<polygon class="st0" points="200.4,293.4 200.4,333 89.7,269 124,249.3 "/>
<polygon class="st0" points="121,155.8 121,244.1 86.8,263.9 86.8,136 "/>
<polygon class="st0" points="80.9,132.7 80.9,267.3 41.3,290.2 41.3,109.8 "/>
<polygon class="st0" points="317.1,130.9 282.9,150.7 206.4,106.5 206.4,67 "/>
<polygon class="st0" points="362.6,104.7 323,127.5 206.4,60.2 206.4,14.5 "/>
<polygon class="st0" points="200.4,67 200.4,106.5 124,150.7 89.7,130.9 "/>
<polygon class="st0" points="200.4,14.5 200.4,60.2 83.9,127.5 44.3,104.7 "/>
<polygon class="st0" points="204.3,200 276.7,158.2 276.7,241.8 204.3,283.6 "/>
<polygon class="st0" points="204.3,200 276.7,158.2 204.3,116.4 131.9,158.2 "/>
<polygon class="st0" points="131.9,158.2 204.3,200 204.3,283.6 131.9,241.8 "/>
<g>
	<g>
		<path class="st1" d="M52.4,192.5h-0.6v20.2c0,0.9,0.4,1.3,1.3,1.3h56.8v17.5H35.3c-1.8,0-2.7-0.9-2.7-2.8v-61.8
			c0-1.9,0.9-2.8,2.7-2.8h72.4c1.9,0,2.8,0.9,2.8,2.8v17.5L92.8,191h-0.7v-9c0-0.7-0.3-1-0.9-1H52.9c-0.5,0-0.8,0.1-1,0.4
			c-0.2,0.3-0.2,0.6-0.2,0.9v8.4h31.5v13.7H56.8L52.4,192.5z"/>
		<path class="st1" d="M160.7,202H160V195c0-0.7-0.3-1-0.9-1h-20.5c-1.5,0-2.5,0.3-3.1,1c-0.6,0.7-0.9,1.9-0.9,3.5v32.9h-16.7V195
			c0-4.3,1.1-7.8,3.4-10.4c2.3-2.6,5.8-3.9,10.8-3.9h41.2c1.6,0,2.4,0.8,2.4,2.5v13.1L160.7,202z"/>
		<path class="st1" d="M224.5,202h-0.7V195c0-0.7-0.3-1-0.9-1h-20.5c-1.5,0-2.5,0.3-3.1,1c-0.6,0.7-0.9,1.9-0.9,3.5v32.9h-16.7V195
			c0-4.3,1.1-7.8,3.4-10.4c2.3-2.6,5.8-3.9,10.8-3.9h41.2c1.6,0,2.4,0.8,2.4,2.5v13.1L224.5,202z"/>
		<path class="st1" d="M310.7,211.3c0,3.1-0.4,5.9-1.1,8.3c-0.7,2.5-1.9,4.6-3.6,6.3c-1.7,1.8-3.8,3.1-6.5,4.1
			c-2.7,1-5.9,1.4-9.6,1.4h-24.4c-3.8,0-7-0.5-9.6-1.4c-2.6-1-4.8-2.3-6.4-4.1c-1.7-1.8-2.9-3.9-3.6-6.3c-0.7-2.5-1.1-5.2-1.1-8.3
			v-10.5c0-3,0.4-5.8,1.1-8.3c0.7-2.5,1.9-4.6,3.6-6.4c1.7-1.8,3.8-3.1,6.4-4.1c2.6-1,5.8-1.4,9.6-1.4h24.4c3.8,0,7,0.5,9.6,1.4
			c2.7,1,4.8,2.3,6.5,4.1c1.7,1.8,2.9,3.9,3.6,6.4c0.7,2.5,1.1,5.3,1.1,8.3V211.3z M286.8,216.6c2.7,0,4.5-0.5,5.6-1.6
			c1-1,1.6-3,1.6-5.9V202c0-3.1-0.5-5.2-1.6-6.3c-1.1-1.1-2.9-1.7-5.5-1.7h-18.2c-2.7,0-4.5,0.6-5.5,1.7c-1,1.1-1.5,3.2-1.5,6.2v7.1
			c0,2.9,0.5,4.9,1.5,5.9c1,1.1,2.9,1.6,5.5,1.6H286.8z"/>
		<path class="st1" d="M361.2,202h-0.7V195c0-0.7-0.3-1-0.9-1H339c-1.5,0-2.5,0.3-3.1,1c-0.6,0.7-0.9,1.9-0.9,3.5v32.9h-16.7V195
			c0-4.3,1.1-7.8,3.4-10.4c2.3-2.6,5.8-3.9,10.8-3.9h41.2c1.6,0,2.4,0.8,2.4,2.5v13.1L361.2,202z"/>
	</g>
	<g>
		<path class="st2" d="M52.4,192.5h-0.6v20.2c0,0.9,0.4,1.3,1.3,1.3h56.8v17.5H35.3c-1.8,0-2.7-0.9-2.7-2.8v-61.8
			c0-1.9,0.9-2.8,2.7-2.8h72.4c1.9,0,2.8,0.9,2.8,2.8v17.5L92.8,191h-0.7v-9c0-0.7-0.3-1-0.9-1H52.9c-0.5,0-0.8,0.1-1,0.4
			c-0.2,0.3-0.2,0.6-0.2,0.9v8.4h31.5v13.7H56.8L52.4,192.5z"/>
		<path class="st2" d="M160.7,202H160V195c0-0.7-0.3-1-0.9-1h-20.5c-1.5,0-2.5,0.3-3.1,1c-0.6,0.7-0.9,1.9-0.9,3.5v32.9h-16.7V195
			c0-4.3,1.1-7.8,3.4-10.4c2.3-2.6,5.8-3.9,10.8-3.9h41.2c1.6,0,2.4,0.8,2.4,2.5v13.1L160.7,202z"/>
		<path class="st2" d="M224.5,202h-0.7V195c0-0.7-0.3-1-0.9-1h-20.5c-1.5,0-2.5,0.3-3.1,1c-0.6,0.7-0.9,1.9-0.9,3.5v32.9h-16.7V195
			c0-4.3,1.1-7.8,3.4-10.4c2.3-2.6,5.8-3.9,10.8-3.9h41.2c1.6,0,2.4,0.8,2.4,2.5v13.1L224.5,202z"/>
		<path class="st2" d="M310.7,211.3c0,3.1-0.4,5.9-1.1,8.3c-0.7,2.5-1.9,4.6-3.6,6.3c-1.7,1.8-3.8,3.1-6.5,4.1
			c-2.7,1-5.9,1.4-9.6,1.4h-24.4c-3.8,0-7-0.5-9.6-1.4c-2.6-1-4.8-2.3-6.4-4.1c-1.7-1.8-2.9-3.9-3.6-6.3c-0.7-2.5-1.1-5.2-1.1-8.3
			v-10.5c0-3,0.4-5.8,1.1-8.3c0.7-2.5,1.9-4.6,3.6-6.4c1.7-1.8,3.8-3.1,6.4-4.1c2.6-1,5.8-1.4,9.6-1.4h24.4c3.8,0,7,0.5,9.6,1.4
			c2.7,1,4.8,2.3,6.5,4.1c1.7,1.8,2.9,3.9,3.6,6.4c0.7,2.5,1.1,5.3,1.1,8.3V211.3z M286.8,216.6c2.7,0,4.5-0.5,5.6-1.6
			c1-1,1.6-3,1.6-5.9V202c0-3.1-0.5-5.2-1.6-6.3c-1.1-1.1-2.9-1.7-5.5-1.7h-18.2c-2.7,0-4.5,0.6-5.5,1.7c-1,1.1-1.5,3.2-1.5,6.2v7.1
			c0,2.9,0.5,4.9,1.5,5.9c1,1.1,2.9,1.6,5.5,1.6H286.8z"/>
		<path class="st2" d="M361.2,202h-0.7V195c0-0.7-0.3-1-0.9-1H339c-1.5,0-2.5,0.3-3.1,1c-0.6,0.7-0.9,1.9-0.9,3.5v32.9h-16.7V195
			c0-4.3,1.1-7.8,3.4-10.4c2.3-2.6,5.8-3.9,10.8-3.9h41.2c1.6,0,2.4,0.8,2.4,2.5v13.1L361.2,202z"/>
	</g>
</g>
</svg>
