<?xml version="1.0" encoding="utf-8"?>
<!-- Generator: Adobe Illustrator 27.3.1, SVG Export Plug-In . SVG Version: 6.00 Build 0)  -->
<svg version="1.1" id="Layer_1" xmlns="http://www.w3.org/2000/svg" xmlns:xlink="http://www.w3.org/1999/xlink" x="0px" y="0px"
	 viewBox="0 0 400 400" style="enable-background:new 0 0 400 400;" xml:space="preserve">
<style type="text/css">
	.st0{fill:url(#SVGID_1_);}
	.st1{fill:url(#SVGID_00000057141549181678624070000009162660367442427559_);}
	.st2{fill:url(#SVGID_00000026857639657206626940000003499031220373037477_);}
</style>
<g>
	<linearGradient id="SVGID_1_" gradientUnits="userSpaceOnUse" x1="115.7477" y1="235.5397" x2="281.7032" y2="235.5397">
		<stop  offset="0" style="stop-color:#A915FF"/>
		<stop  offset="0.201" style="stop-color:#C144BE"/>
		<stop  offset="0.4093" style="stop-color:#D76F83"/>
		<stop  offset="0.6011" style="stop-color:#E89153"/>
		<stop  offset="0.7695" style="stop-color:#F5AA31"/>
		<stop  offset="0.9082" style="stop-color:#FCB91D"/>
		<stop  offset="1" style="stop-color:#FFBE15"/>
	</linearGradient>
	<path class="st0" d="M245.8,193.9c-12,0-24,0.9-36.1,1.3c-6.8,0.2-13.7,0.4-20.5,0.2c-12.2-0.4-24.3-1.2-36.5-1.5
		c-3.5-0.1-7.1,0.6-10.4,1.6c-12.7,3.7-20.2,12.9-24.8,24.8c-2.2,5.8-2,11.8-1.3,17.9c0.8,6.8,2.8,13.2,6.4,19
		c4.6,7.5,12,11.1,19.8,14.1c9.2,3.6,19,4.5,28.7,5.2c9.1,0.6,18.2,0.6,29.8,0.9c8-0.3,18.5-0.6,29-1.2c11.1-0.6,22-2.6,32-7.8
		c4.3-2.2,8.3-4.8,11.3-8.8c5.1-6.9,7.4-14.7,8.3-23.2c1-9.4-0.9-17.9-6.3-25.7C268.1,200.2,258.5,193.9,245.8,193.9z M166.8,244.3
		c-5,6.5-13.1,6.5-17.9-0.1c-4.8-6.6-5.9-14-4.2-21.8c0.7-3.3,2.2-6.7,4.1-9.5c4.7-6.9,13-6.8,18.1-0.1c3.5,4.7,4.7,10.1,4.8,15.7
		C171.6,234.2,170.3,239.6,166.8,244.3z M254.2,234.4c-0.7,3.3-2.2,6.7-4.1,9.6c-4.7,6.9-13,6.8-18.1,0.1c-3.1-4.1-4.8-9.8-4.8-16.5
		c0.2-5,1.4-10.4,5-15c5-6.5,13.1-6.4,17.9,0.1C254.8,219.2,255.9,226.7,254.2,234.4z"/>
	
		<linearGradient id="SVGID_00000053517514013645783300000011665710865878249116_" gradientUnits="userSpaceOnUse" x1="60.3612" y1="200.2295" x2="331.7094" y2="200.2295">
		<stop  offset="0" style="stop-color:#A915FF"/>
		<stop  offset="0.201" style="stop-color:#C144BE"/>
		<stop  offset="0.4093" style="stop-color:#D76F83"/>
		<stop  offset="0.6011" style="stop-color:#E89153"/>
		<stop  offset="0.7695" style="stop-color:#F5AA31"/>
		<stop  offset="0.9082" style="stop-color:#FCB91D"/>
		<stop  offset="1" style="stop-color:#FFBE15"/>
	</linearGradient>
	<path style="fill:url(#SVGID_00000053517514013645783300000011665710865878249116_);" d="M331,121.5L195.3,44l-135,78.7L61.1,279
		l135.7,77.5l135-78.7L331,121.5z M310.2,209.8c-0.5,9.8-1.9,19.4-4.9,28.8c-6.7,20.9-20.8,34.6-40.9,42.6
		c-9.9,3.9-20.2,6.2-30.7,7.3c-11.5,1.2-23.1,1.9-32.6,2.6c-11.7-0.7-21.3-0.8-30.8-1.8c-13.9-1.4-27.6-3.9-40.3-9.9
		c-15.8-7.4-27.7-18.5-34.3-35c-4.1-10.3-6.2-20.9-6.9-31.9c-0.6-9.4-0.4-18.6,2-27.7c2.7-10,7.5-18.8,14.3-26.5
		c1-1.1,1.1-2,0.7-3.5c-4.6-14.4-3.5-28.6,1.9-42.6c0.6-1.6,1.8-1.7,3.1-1.7c7.1,0,14.1,1.5,20.4,4.7c7.9,3.9,15.5,8.4,23.3,12.6
		c0.9,0.5,2.2,0.7,3.1,0.5c10.7-2.4,21.6-3.5,32.6-3.6c8.1-0.1,16.2-0.4,24.2,0.2c8.9,0.7,17.8,2.3,26.7,3.4c1,0.1,2.1,0,3-0.5
		c7.5-4.1,14.9-8.7,22.6-12.5c6.5-3.2,13.6-4.9,21-4.9c1.9,0,2.9,0.7,3.6,2.6c2.7,7.1,4.3,14.5,4.5,22.1c0.2,6.8-0.9,13.5-3,19.9
		c-0.4,1.3-0.2,2.1,0.6,3.1c6.8,7.7,11.7,16.5,14.4,26.5C310.2,192.9,310.6,201.3,310.2,209.8z"/>
</g>
<g>
	
		<linearGradient id="SVGID_00000126282122169740239730000017545846522452638865_" gradientUnits="userSpaceOnUse" x1="39.2328" y1="200.2295" x2="352.8378" y2="200.2295">
		<stop  offset="0" style="stop-color:#A915FF"/>
		<stop  offset="0.201" style="stop-color:#C144BE"/>
		<stop  offset="0.4093" style="stop-color:#D76F83"/>
		<stop  offset="0.6011" style="stop-color:#E89153"/>
		<stop  offset="0.7695" style="stop-color:#F5AA31"/>
		<stop  offset="0.9082" style="stop-color:#FCB91D"/>
		<stop  offset="1" style="stop-color:#FFBE15"/>
	</linearGradient>
	<path style="fill:url(#SVGID_00000126282122169740239730000017545846522452638865_);" d="M195.3,380.9l-1.7-1L39.2,289.9l0.7-180.6
		l156.8-89.7l156.1,90.9l-0.7,180.6L195.3,380.9z M46.2,285.9l149.1,86.9l149.8-85.7l0.7-172.6L196.7,27.7L46.9,113.4L46.2,285.9z"
		/>
</g>
</svg>
