<?xml version="1.0" encoding="utf-8"?>
<!-- Generator: Adobe Illustrator 27.3.1, SVG Export Plug-In . SVG Version: 6.00 Build 0)  -->
<svg version="1.1" id="Layer_1" xmlns="http://www.w3.org/2000/svg" xmlns:xlink="http://www.w3.org/1999/xlink" x="0px" y="0px"
	 viewBox="0 0 1366 768" style="enable-background:new 0 0 1366 768;" xml:space="preserve">
<style type="text/css">
	.st0{fill:#42C2D3;}
	.st1{fill:none;stroke:#0087D4;stroke-miterlimit:10;}
	.st2{fill:none;stroke:#2382DA;stroke-miterlimit:10;}
	.st3{fill:none;stroke:#477DE0;stroke-miterlimit:10;}
	.st4{fill:none;stroke:#6A78E6;stroke-miterlimit:10;}
	.st5{fill:none;stroke:#8D73ED;stroke-miterlimit:10;}
	.st6{fill:none;stroke:#B06EF3;stroke-miterlimit:10;}
	.st7{fill:none;stroke:#D469F9;stroke-miterlimit:10;}
	.st8{fill:none;stroke:#F764FF;stroke-miterlimit:10;}
	.st9{fill:none;stroke:#D49400;stroke-miterlimit:10;}
	.st10{fill:none;stroke:#DA8215;stroke-miterlimit:10;}
	.st11{fill:none;stroke:#E0702A;stroke-miterlimit:10;}
	.st12{fill:none;stroke:#E65E3F;stroke-miterlimit:10;}
	.st13{fill:none;stroke:#ED4B54;stroke-miterlimit:10;}
	.st14{fill:none;stroke:#F33969;stroke-miterlimit:10;}
	.st15{fill:none;stroke:#F9277E;stroke-miterlimit:10;}
	.st16{fill:none;stroke:#FF1593;stroke-miterlimit:10;}
	.st17{fill:none;stroke:#FF557E;stroke-miterlimit:10;}
	.st18{fill:none;stroke:#DB5E8D;stroke-miterlimit:10;}
	.st19{fill:none;stroke:#B6679D;stroke-miterlimit:10;}
	.st20{fill:none;stroke:#9270AC;stroke-miterlimit:10;}
	.st21{fill:none;stroke:#6D79BB;stroke-miterlimit:10;}
	.st22{fill:none;stroke:#4982CA;stroke-miterlimit:10;}
	.st23{fill:none;stroke:#248BDA;stroke-miterlimit:10;}
	.st24{fill:none;stroke:#0094E9;stroke-miterlimit:10;}
	.st25{fill:none;stroke:#00D492;stroke-miterlimit:10;}
	.st26{fill:none;stroke:#19D77D;stroke-miterlimit:10;}
	.st27{fill:none;stroke:#33DA68;stroke-miterlimit:10;}
	.st28{fill:none;stroke:#4CDD53;stroke-miterlimit:10;}
	.st29{fill:none;stroke:#66E03F;stroke-miterlimit:10;}
	.st30{fill:none;stroke:#7FE32A;stroke-miterlimit:10;}
	.st31{fill:none;stroke:#99E615;stroke-miterlimit:10;}
	.st32{fill:none;stroke:#B2E900;stroke-miterlimit:10;}
	.st33{fill:none;stroke:#3F5CFF;stroke-miterlimit:10;}
	.st34{fill:none;stroke:#5A6AE1;stroke-miterlimit:10;}
	.st35{fill:none;stroke:#7678C2;stroke-miterlimit:10;}
	.st36{fill:none;stroke:#9186A4;stroke-miterlimit:10;}
	.st37{fill:none;stroke:#AD9585;stroke-miterlimit:10;}
	.st38{fill:none;stroke:#C8A367;stroke-miterlimit:10;}
	.st39{fill:none;stroke:#E4B148;stroke-miterlimit:10;}
	.st40{fill:none;stroke:#FFBF2A;stroke-miterlimit:10;}
	.st41{fill:#FF00C6;}
	.st42{fill:none;stroke:#FF00C6;stroke-miterlimit:10;}
	.st43{fill:none;stroke:#00D453;stroke-miterlimit:10;}
	.st44{fill:#0092D4;}
	.st45{fill:#FF7B00;}
	.st46{fill:#690094;}
	.st47{fill:#00D453;}
	.st48{fill:#503FFF;}
	.st49{fill:#00A1E9;}
</style>
<g>
	<path class="st0" d="M142.9,492c-17.3,0-34.4-1-51-3.5c-42.5-6.2-61.3-18.8-61.5-18.9l0.6-0.8c0.2,0.1,18.8,12.6,61.1,18.8
		c70.8,10.3,152.4-4.5,208.4-18.9l0.2,1C257.8,480.7,199.6,492,142.9,492z"/>
</g>
<g>
	<path class="st1" d="M544.7,576.7c0,0-59.2-154.8-244.1-107.5"/>
	<path class="st2" d="M1029.7,518.5c0,0-555.9-112.1-731.9-48.6"/>
	<path class="st3" d="M1032.6,516.5c0,0-570.6-125.6-737.7-45.9"/>
	<path class="st4" d="M1032.6,516.5c0,0-582.4-141.1-740.6-45.2"/>
	<path class="st5" d="M1029.7,518.5c0,0-591.3-158.5-740.6-46.5"/>
	<path class="st6" d="M1029.7,518.5c0,0-603-174-743.5-45.7"/>
	<path class="st7" d="M1029.7,518.5c0,0-614.8-189.5-746.4-45"/>
	<path class="st8" d="M544.7,327.3c0,0-141.6-13.8-264.4,146.9"/>
</g>
<g>
	<path class="st1" d="M1366,366c0,0-351.7-188.1-536.6-140.8"/>
	<path class="st2" d="M1366,313.7c0,0-363.5-151.3-539.5-87.8"/>
	<path class="st3" d="M1366,261.4c0,0-375.3-114.5-542.4-34.9"/>
	<path class="st4" d="M1366,209.1c0,0-387.1-77.7-545.3,18.1"/>
	<path class="st5" d="M1366,156.8c0,0-398.8-41-548.2,71.1"/>
	<path class="st6" d="M1366,104.6c0,0-410.6-4.2-551.1,124.1"/>
	<path class="st7" d="M1366,52.3c0,0-422.4,32.6-554,177.1"/>
	<path class="st8" d="M1366,0c0,0-434.2,69.4-556.9,230.1"/>
</g>
<g>
	<path class="st9" d="M1366,366c0,0-288-107.5-472.9-60.2"/>
	<path class="st10" d="M1366,313.7c0,0-299.8-70.7-475.8-7.2"/>
	<path class="st11" d="M1366,261.4c0,0-311.6-33.9-478.7,45.8"/>
	<path class="st12" d="M1366,209.1c0,0-323.3,2.9-481.6,98.7"/>
	<path class="st13" d="M1366,156.8c0,0-335.1,39.7-484.5,151.7"/>
	<path class="st14" d="M1366,104.6c0,0-346.9,76.4-487.4,204.7"/>
	<path class="st15" d="M1366,52.3c0,0-358.7,113.2-490.3,257.7"/>
	<path class="st16" d="M1366,0c0,0-370.4,150-493.2,310.7"/>
</g>
<g>
	<path class="st17" d="M1366,768c0,0-131-235.4-316-251.5"/>
	<path class="st18" d="M1366,710.6c0,0-142.8-202.5-318.9-193.4"/>
	<path class="st19" d="M1366,653.1c0,0-154.6-169.6-321.8-135.2"/>
	<path class="st20" d="M1366,595.7c0,0-166.4-136.7-324.7-77.1"/>
	<path class="st21" d="M1366,538.3c0,0-178.2-103.8-327.6-18.9"/>
	<path class="st22" d="M1366,480.8c0,0-190-71-330.5,39.2"/>
	<path class="st23" d="M1366,423.4c0,0-201.8-38.1-333.4,97.3"/>
	<path class="st24" d="M1366,366c0,0-213.6-5.2-336.3,155.5"/>
</g>
<g>
	<path class="st25" d="M809.1,227.7c0,0-77.3,110.6-244.1,102.1"/>
	<path class="st26" d="M1366,0c0,0-597.6,400.5-803.9,329.2"/>
	<path class="st27" d="M872.1,310.8c0,0-158.7,67.4-312.9,17.7"/>
	<path class="st28" d="M1366,261.4c0,0-621.7,174-809.7,66.4"/>
	<path class="st29" d="M1366,313.7c0,0-583.6,163.2-812.6,13.5"/>
	<path class="st30" d="M1366,366c0,0-593.1,146.1-815.5-39.5"/>
	<path class="st31" d="M1366,423.4c0,0-567.5,126.2-818.4-97.6"/>
	<path class="st32" d="M1029.7,518.5c0,0-362.2-40.8-484.9-193.3"/>
</g>
<g>
	<path class="st33" d="M1366,366c0,0-634.2,221.9-801,213.4"/>
	<path class="st34" d="M1366,423.4c0,0-643.4,184.4-803.9,155.3"/>
	<path class="st35" d="M1366,480.8c0,0-652.6,146.9-806.8,97.2"/>
	<path class="st36" d="M1366,538.3c0,0-661.8,109.3-809.7,39.1"/>
	<path class="st37" d="M1366,595.7c0,0-671,71.8-812.6-19"/>
	<path class="st38" d="M1366,653.1c0,0-680.2,34.3-815.5-77.1"/>
	<path class="st39" d="M1366,710.6c0,0-689.4-3.2-818.4-135.2"/>
	<path class="st40" d="M1366,768c0,0-698.6-40.8-821.3-193.3"/>
</g>
<g>
	<circle class="st41" cx="280.4" cy="474.1" r="17.9"/>
</g>
<g>
	<circle class="st42" cx="280.4" cy="472.8" r="30.8"/>
</g>
<g>
	<circle class="st43" cx="544.7" cy="327.1" r="20.3"/>
</g>
<g>
	<circle class="st44" cx="30.7" cy="469.2" r="10.6"/>
</g>
<g>
	<circle class="st45" cx="872.8" cy="310.7" r="19.6"/>
</g>
<g>
	<circle class="st46" cx="809.1" cy="230.1" r="10.6"/>
</g>
<g>
	<circle class="st47" cx="544.7" cy="327" r="10.6"/>
</g>
<g>
	<circle class="st48" cx="544.7" cy="579.6" r="10.6"/>
</g>
<g>
	<circle class="st49" cx="1029.7" cy="518.5" r="20.3"/>
</g>
</svg>
