<?xml version="1.0" encoding="utf-8"?>
<!-- Generator: Adobe Illustrator 27.6.1, SVG Export Plug-In . SVG Version: 6.00 Build 0)  -->
<svg version="1.1" id="Layer_1" xmlns="http://www.w3.org/2000/svg" xmlns:xlink="http://www.w3.org/1999/xlink" x="0px" y="0px"
	 viewBox="0 0 400 400" style="enable-background:new 0 0 400 400;" xml:space="preserve">
<style type="text/css">
	.st0{fill:#BC57BC;}
	.st1{stroke:#FFFFFF;stroke-width:6;stroke-miterlimit:10;}
	.st2{fill:#93278F;}
</style>
<polygon class="st0" points="320,136 320,263.9 285.8,244.1 285.8,155.8 "/>
<polygon class="st0" points="365.5,109.8 365.5,290.2 325.9,267.3 325.9,132.7 "/>
<polygon class="st0" points="362.6,295.3 206.4,385.4 206.4,339.8 323,272.4 "/>
<polygon class="st0" points="317.1,269 206.4,333 206.4,293.4 282.9,249.3 "/>
<polygon class="st0" points="200.4,339.8 200.4,385.4 44.3,295.3 83.9,272.4 "/>
<polygon class="st0" points="200.4,293.4 200.4,333 89.7,269 124,249.3 "/>
<polygon class="st0" points="121,155.8 121,244.1 86.8,263.9 86.8,136 "/>
<polygon class="st0" points="80.9,132.7 80.9,267.3 41.3,290.2 41.3,109.8 "/>
<polygon class="st0" points="317.1,130.9 282.9,150.7 206.4,106.5 206.4,67 "/>
<polygon class="st0" points="362.6,104.7 323,127.5 206.4,60.2 206.4,14.5 "/>
<polygon class="st0" points="200.4,67 200.4,106.5 124,150.7 89.7,130.9 "/>
<polygon class="st0" points="200.4,14.5 200.4,60.2 83.9,127.5 44.3,104.7 "/>
<polygon class="st0" points="204.3,200 276.7,158.2 276.7,241.8 204.3,283.6 "/>
<polygon class="st0" points="204.3,200 276.7,158.2 204.3,116.4 131.9,158.2 "/>
<polygon class="st0" points="131.9,158.2 204.3,200 204.3,283.6 131.9,241.8 "/>
<g>
	<g>
		<path class="st1" d="M65.1,235.4l-16.3-25.3h-0.6v13h-1.9c-4,0-7.5-0.5-10.3-1.5c-2.8-1-5.1-2.5-6.9-4.3c-1.7-1.9-3-4.1-3.8-6.8
			c-0.8-2.7-1.2-5.7-1.2-8.9v-11.2c0-3.3,0.4-6.3,1.2-8.9c0.8-2.7,2.1-4.9,3.8-6.8c1.7-1.9,4-3.3,6.9-4.3c2.8-1,6.3-1.5,10.3-1.5
			h24.3c4,0,7.5,0.5,10.3,1.5c2.8,1,5.1,2.5,6.9,4.3c1.7,1.9,3,4.1,3.8,6.8c0.8,2.7,1.2,5.7,1.2,8.9v11.2c0,3.3-0.4,6.2-1.2,8.6
			c-0.8,2.4-2.1,4.3-3.7,5.8c-1.7,1.5-3.8,2.7-6.3,3.5c-2.5,0.8-5.5,1.3-9,1.4v0.6l9.5,13.5v0.6H65.1z M39.6,200
			c0,1.9,0.2,3.4,0.6,4.6c0.4,1.1,1,2,1.8,2.7c0.8,0.6,1.9,1,3.2,1.3c1.3,0.2,3,0.3,4.9,0.3h19.2c1.6,0,3-0.2,4.1-0.5
			c1.1-0.3,1.9-0.9,2.5-1.8c0.6-0.8,1-1.9,1.2-3.3c0.2-1.4,0.3-3.1,0.3-5.2v-7.2c0-3.3-0.6-5.6-1.9-6.9c-1.2-1.2-3.3-1.9-6.3-1.9
			H47.7c-1.6,0-3,0.2-4.1,0.5c-1.1,0.3-1.9,0.9-2.5,1.8c-0.6,0.8-1,1.9-1.2,3.3c-0.2,1.4-0.3,3.1-0.3,5.1V200z"/>
		<path class="st1" d="M99.2,181.9h13.6v23c0,2.3,0.5,3.9,1.4,4.8c0.9,0.9,2.6,1.3,4.9,1.3h12.4c2.4,0,4.1-0.5,5-1.4
			c0.9-0.9,1.4-2.5,1.4-4.7v-23h13.6v24.8c0,2.5-0.3,4.7-0.9,6.7c-0.6,2-1.6,3.7-2.9,5.1c-1.3,1.4-3.1,2.5-5.2,3.3
			c-2.1,0.8-4.8,1.2-7.9,1.2h-18.6c-3,0-5.6-0.4-7.8-1.2c-2.1-0.8-3.8-1.9-5.2-3.3c-1.3-1.4-2.3-3.1-2.9-5.1c-0.6-2-0.9-4.2-0.9-6.7
			V181.9z"/>
		<path class="st1" d="M171.8,199.6h-0.5v6.4c0,2.3,0.4,4,1.2,4.8c0.8,0.9,2.3,1.3,4.5,1.3h29.3V223h-31.8c-3,0-5.6-0.4-7.8-1.2
			c-2.1-0.8-3.9-1.9-5.2-3.3c-1.3-1.4-2.3-3.1-2.9-5.1c-0.6-2-0.9-4.2-0.9-6.7v-8.5c0-2.5,0.3-4.7,0.9-6.7c0.6-2,1.6-3.7,2.9-5.1
			c1.3-1.4,3.1-2.5,5.2-3.3c2.1-0.8,4.7-1.2,7.8-1.2h23.7c3.1,0,5.4,0.8,6.7,2.4c1.3,1.6,2,4.2,2,7.6v4c0,3-0.7,5.5-2,7.3
			c-1.3,1.8-3.6,2.7-6.7,2.7h-24L171.8,199.6z M171.3,197.6h20.7c1.5,0,2.3-0.8,2.3-2.4v-1.5c0-0.8-0.2-1.4-0.6-1.8
			c-0.4-0.3-1-0.5-1.8-0.5h-15c-2.1,0-3.6,0.4-4.4,1.3c-0.8,0.9-1.3,2.4-1.3,4.7V197.6z"/>
		<path class="st1" d="M212.7,181.9h13.6v23c0,2.3,0.5,3.9,1.4,4.8c0.9,0.9,2.6,1.3,4.9,1.3h12.4c2.4,0,4.1-0.5,5-1.4
			c0.9-0.9,1.4-2.5,1.4-4.7v-23h13.6v24.8c0,2.5-0.3,4.7-0.9,6.7c-0.6,2-1.6,3.7-2.9,5.1c-1.3,1.4-3.1,2.5-5.2,3.3
			c-2.1,0.8-4.8,1.2-7.9,1.2h-18.6c-3,0-5.6-0.4-7.8-1.2c-2.1-0.8-3.8-1.9-5.2-3.3c-1.3-1.4-2.3-3.1-2.9-5.1c-0.6-2-0.9-4.2-0.9-6.7
			V181.9z"/>
		<path class="st1" d="M285.3,199.6h-0.5v6.4c0,2.3,0.4,4,1.2,4.8c0.8,0.9,2.3,1.3,4.5,1.3h29.3V223H288c-3,0-5.6-0.4-7.8-1.2
			c-2.1-0.8-3.9-1.9-5.2-3.3c-1.3-1.4-2.3-3.1-2.9-5.1c-0.6-2-0.9-4.2-0.9-6.7v-8.5c0-2.5,0.3-4.7,0.9-6.7c0.6-2,1.6-3.7,2.9-5.1
			c1.3-1.4,3.1-2.5,5.2-3.3c2.1-0.8,4.7-1.2,7.8-1.2h23.7c3.1,0,5.4,0.8,6.7,2.4c1.3,1.6,2,4.2,2,7.6v4c0,3-0.7,5.5-2,7.3
			c-1.3,1.8-3.6,2.7-6.7,2.7h-24L285.3,199.6z M284.8,197.6h20.7c1.5,0,2.3-0.8,2.3-2.4v-1.5c0-0.8-0.2-1.4-0.6-1.8
			c-0.4-0.3-1-0.5-1.8-0.5h-15c-2.1,0-3.6,0.4-4.4,1.3c-0.8,0.9-1.3,2.4-1.3,4.7V197.6z"/>
		<path class="st1" d="M342.2,223c-3,0-5.6-0.4-7.8-1.2c-2.1-0.8-3.8-1.9-5.2-3.3c-1.3-1.4-2.3-3.1-2.9-5.1c-0.6-2-0.9-4.2-0.9-6.7
			v-8.5c0-2.4,0.3-4.7,0.9-6.7c0.6-2,1.6-3.7,2.9-5.2c1.3-1.4,3-2.5,5.2-3.3c2.1-0.8,4.7-1.2,7.8-1.2h20.1v-17.3h13.6V223H342.2z
			 M357.7,211l4,10.6h0.6v-28.8h-17.5c-1.1,0-2.1,0.1-2.8,0.4c-0.7,0.3-1.3,0.7-1.7,1.3c-0.4,0.6-0.7,1.4-0.9,2.4
			c-0.2,1-0.3,2.2-0.3,3.7v4.3c0,2.3,0.4,3.9,1.3,4.8c0.8,0.8,2.3,1.3,4.4,1.3H357.7z"/>
	</g>
	<g>
		<path class="st2" d="M65.1,235.4l-16.3-25.3h-0.6v13h-1.9c-4,0-7.5-0.5-10.3-1.5c-2.8-1-5.1-2.5-6.9-4.3c-1.7-1.9-3-4.1-3.8-6.8
			c-0.8-2.7-1.2-5.7-1.2-8.9v-11.2c0-3.3,0.4-6.3,1.2-8.9c0.8-2.7,2.1-4.9,3.8-6.8c1.7-1.9,4-3.3,6.9-4.3c2.8-1,6.3-1.5,10.3-1.5
			h24.3c4,0,7.5,0.5,10.3,1.5c2.8,1,5.1,2.5,6.9,4.3c1.7,1.9,3,4.1,3.8,6.8c0.8,2.7,1.2,5.7,1.2,8.9v11.2c0,3.3-0.4,6.2-1.2,8.6
			c-0.8,2.4-2.1,4.3-3.7,5.8c-1.7,1.5-3.8,2.7-6.3,3.5c-2.5,0.8-5.5,1.3-9,1.4v0.6l9.5,13.5v0.6H65.1z M39.6,200
			c0,1.9,0.2,3.4,0.6,4.6c0.4,1.1,1,2,1.8,2.7c0.8,0.6,1.9,1,3.2,1.3c1.3,0.2,3,0.3,4.9,0.3h19.2c1.6,0,3-0.2,4.1-0.5
			c1.1-0.3,1.9-0.9,2.5-1.8c0.6-0.8,1-1.9,1.2-3.3c0.2-1.4,0.3-3.1,0.3-5.2v-7.2c0-3.3-0.6-5.6-1.9-6.9c-1.2-1.2-3.3-1.9-6.3-1.9
			H47.7c-1.6,0-3,0.2-4.1,0.5c-1.1,0.3-1.9,0.9-2.5,1.8c-0.6,0.8-1,1.9-1.2,3.3c-0.2,1.4-0.3,3.1-0.3,5.1V200z"/>
		<path class="st2" d="M99.2,181.9h13.6v23c0,2.3,0.5,3.9,1.4,4.8c0.9,0.9,2.6,1.3,4.9,1.3h12.4c2.4,0,4.1-0.5,5-1.4
			c0.9-0.9,1.4-2.5,1.4-4.7v-23h13.6v24.8c0,2.5-0.3,4.7-0.9,6.7c-0.6,2-1.6,3.7-2.9,5.1c-1.3,1.4-3.1,2.5-5.2,3.3
			c-2.1,0.8-4.8,1.2-7.9,1.2h-18.6c-3,0-5.6-0.4-7.8-1.2c-2.1-0.8-3.8-1.9-5.2-3.3c-1.3-1.4-2.3-3.1-2.9-5.1c-0.6-2-0.9-4.2-0.9-6.7
			V181.9z"/>
		<path class="st2" d="M171.8,199.6h-0.5v6.4c0,2.3,0.4,4,1.2,4.8c0.8,0.9,2.3,1.3,4.5,1.3h29.3V223h-31.8c-3,0-5.6-0.4-7.8-1.2
			c-2.1-0.8-3.9-1.9-5.2-3.3c-1.3-1.4-2.3-3.1-2.9-5.1c-0.6-2-0.9-4.2-0.9-6.7v-8.5c0-2.5,0.3-4.7,0.9-6.7c0.6-2,1.6-3.7,2.9-5.1
			c1.3-1.4,3.1-2.5,5.2-3.3c2.1-0.8,4.7-1.2,7.8-1.2h23.7c3.1,0,5.4,0.8,6.7,2.4c1.3,1.6,2,4.2,2,7.6v4c0,3-0.7,5.5-2,7.3
			c-1.3,1.8-3.6,2.7-6.7,2.7h-24L171.8,199.6z M171.3,197.6h20.7c1.5,0,2.3-0.8,2.3-2.4v-1.5c0-0.8-0.2-1.4-0.6-1.8
			c-0.4-0.3-1-0.5-1.8-0.5h-15c-2.1,0-3.6,0.4-4.4,1.3c-0.8,0.9-1.3,2.4-1.3,4.7V197.6z"/>
		<path class="st2" d="M212.7,181.9h13.6v23c0,2.3,0.5,3.9,1.4,4.8c0.9,0.9,2.6,1.3,4.9,1.3h12.4c2.4,0,4.1-0.5,5-1.4
			c0.9-0.9,1.4-2.5,1.4-4.7v-23h13.6v24.8c0,2.5-0.3,4.7-0.9,6.7c-0.6,2-1.6,3.7-2.9,5.1c-1.3,1.4-3.1,2.5-5.2,3.3
			c-2.1,0.8-4.8,1.2-7.9,1.2h-18.6c-3,0-5.6-0.4-7.8-1.2c-2.1-0.8-3.8-1.9-5.2-3.3c-1.3-1.4-2.3-3.1-2.9-5.1c-0.6-2-0.9-4.2-0.9-6.7
			V181.9z"/>
		<path class="st2" d="M285.3,199.6h-0.5v6.4c0,2.3,0.4,4,1.2,4.8c0.8,0.9,2.3,1.3,4.5,1.3h29.3V223H288c-3,0-5.6-0.4-7.8-1.2
			c-2.1-0.8-3.9-1.9-5.2-3.3c-1.3-1.4-2.3-3.1-2.9-5.1c-0.6-2-0.9-4.2-0.9-6.7v-8.5c0-2.5,0.3-4.7,0.9-6.7c0.6-2,1.6-3.7,2.9-5.1
			c1.3-1.4,3.1-2.5,5.2-3.3c2.1-0.8,4.7-1.2,7.8-1.2h23.7c3.1,0,5.4,0.8,6.7,2.4c1.3,1.6,2,4.2,2,7.6v4c0,3-0.7,5.5-2,7.3
			c-1.3,1.8-3.6,2.7-6.7,2.7h-24L285.3,199.6z M284.8,197.6h20.7c1.5,0,2.3-0.8,2.3-2.4v-1.5c0-0.8-0.2-1.4-0.6-1.8
			c-0.4-0.3-1-0.5-1.8-0.5h-15c-2.1,0-3.6,0.4-4.4,1.3c-0.8,0.9-1.3,2.4-1.3,4.7V197.6z"/>
		<path class="st2" d="M342.2,223c-3,0-5.6-0.4-7.8-1.2c-2.1-0.8-3.8-1.9-5.2-3.3c-1.3-1.4-2.3-3.1-2.9-5.1c-0.6-2-0.9-4.2-0.9-6.7
			v-8.5c0-2.4,0.3-4.7,0.9-6.7c0.6-2,1.6-3.7,2.9-5.2c1.3-1.4,3-2.5,5.2-3.3c2.1-0.8,4.7-1.2,7.8-1.2h20.1v-17.3h13.6V223H342.2z
			 M357.7,211l4,10.6h0.6v-28.8h-17.5c-1.1,0-2.1,0.1-2.8,0.4c-0.7,0.3-1.3,0.7-1.7,1.3c-0.4,0.6-0.7,1.4-0.9,2.4
			c-0.2,1-0.3,2.2-0.3,3.7v4.3c0,2.3,0.4,3.9,1.3,4.8c0.8,0.8,2.3,1.3,4.4,1.3H357.7z"/>
	</g>
</g>
</svg>
