<?xml version="1.0" encoding="utf-8"?>
<!-- Generator: Adobe Illustrator 27.3.1, SVG Export Plug-In . SVG Version: 6.00 Build 0)  -->
<svg version="1.1" id="Layer_1" xmlns="http://www.w3.org/2000/svg" xmlns:xlink="http://www.w3.org/1999/xlink" x="0px" y="0px"
	 viewBox="0 0 400 400" style="enable-background:new 0 0 400 400;" xml:space="preserve">
<style type="text/css">
	.st0{fill:url(#SVGID_1_);}
	.st1{fill:url(#SVGID_00000163776993890324024020000004681820720123614894_);}
</style>
<g id="_x34_dmstl_00000090282346317035875490000015265593553449747884_">
	<g>
		<linearGradient id="SVGID_1_" gradientUnits="userSpaceOnUse" x1="16" y1="294.1995" x2="384" y2="294.1995">
			<stop  offset="0" style="stop-color:#A915FF"/>
			<stop  offset="0.201" style="stop-color:#C144BE"/>
			<stop  offset="0.4093" style="stop-color:#D76F83"/>
			<stop  offset="0.6011" style="stop-color:#E89153"/>
			<stop  offset="0.7695" style="stop-color:#F5AA31"/>
			<stop  offset="0.9082" style="stop-color:#FCB91D"/>
			<stop  offset="1" style="stop-color:#FFBE15"/>
		</linearGradient>
		<path class="st0" d="M16,334.2c0.2,0.3,0.3,0.6,0.6,1.1c0.2-0.3,0.4-0.6,0.4-0.8c0.4-6.9,4.2-12.6,8.5-18
			c8.4-10.6,17.1-21,25.6-31.5c18.5-22.6,37-45.2,55.3-67.9c5.4-6.7,12.7-9.8,21.3-11.2c9.1-1.5,18.3-1.7,27.5-1.7
			c33.6,0.1,67.2-0.1,100.8,0.2c11.7,0.1,23.1,2.7,32.9,8.8c3,1.9,5.7,4.4,7.9,7.1c15.9,19.3,31.7,38.7,47.5,58.1
			c10.4,12.7,20.9,25.4,31.3,38.1c3.2,3.9,6,8,7,12.9c0.3,1.4,0.3,2.8,0.4,4.6c0.4-0.7,0.7-1.1,0.9-1.5c0,2.3,0,4.6,0,7
			c-0.3,0.7-0.7,1.5-0.8,2.2c-0.9,5.6-3.2,10.8-7.4,15.1c-7.7,7.8-19.1,13.1-33.8,8.5c-16.6-5.1-33.2-10.2-49.8-15.2
			c-1.5-0.5-3-0.7-4.8-1.1c0,0.9,0,1.3,0,1.8c0.1,10.7,0.1,21.3,0.2,32c0,1.2-0.5,1.7-1.8,1.6c-1.4-0.1-2.8-0.2-4.3-0.2
			c-17.7,0-35.4,0-53.1,0c-38,0-76.1,0.1-114.1,0.1c-1,0-2,0-3.2,0c0-11.3,0-22.3,0-33.5c-0.4,0.1-0.7,0.1-0.9,0.1
			c-15.7,4.1-31.3,8.2-47,12.4c-6.7,1.8-13.4,3.4-20.4,2.9c-10.5-0.8-18.4-5-23-13.8c-1.9-3.6-2.7-7.3-2.4-11.3
			c-0.4,1.2-0.9,2.3-1.3,3.5C16,341.1,16,337.7,16,334.2z M112.4,293c0.3,0,0.4,0.1,0.5,0c8.6-2.4,17.2-3.3,26.1-1.7
			c15.6,2.9,25,14.5,21.7,29.5c-2.5,11.1-10.3,18.7-21.2,24c-0.7,0.3-1.4,0.7-2.5,1.2c1.5,0.5,2.6,0.9,3.7,1.2
			c18.9,5.9,37.8,11.8,56.7,17.7c1.2,0.4,2.7,0.4,3.9,0.1c20.3-5.6,40.6-11.3,60.9-16.9c0.5-0.1,0.9-0.4,1.7-0.7
			c-2.3-1.2-4.5-2.2-6.4-3.4c-10.4-6.3-17.3-14.6-18.5-26.1c-1.1-10.8,5.1-19.5,16.4-23.5c9.2-3.2,18.8-3.2,28.4-2
			c2,0.3,3.9,0.6,5.9,0.9c0-21.3,0-42.3,0-63.5c-0.8,0.2-1.5,0.4-2.1,0.6c-28.2,9.1-56.5,18.2-84.7,27.3c-1.8,0.6-3.3,0.5-5.1,0
			c-27.4-8.3-54.7-16.6-82.1-25c-1-0.3-2-0.6-3.3-1C112.4,252.5,112.4,272.7,112.4,293z"/>
	</g>
</g>
<linearGradient id="SVGID_00000030472137271318826870000012041942390536789949_" gradientUnits="userSpaceOnUse" x1="116.4048" y1="104.7793" x2="295.4946" y2="104.7793" gradientTransform="matrix(0.9472 3.733065e-02 -3.538287e-02 0.9993 9.6055 -7.1445)">
	<stop  offset="0" style="stop-color:#A915FF"/>
	<stop  offset="0.201" style="stop-color:#C144BE"/>
	<stop  offset="0.4093" style="stop-color:#D76F83"/>
	<stop  offset="0.6011" style="stop-color:#E89153"/>
	<stop  offset="0.7695" style="stop-color:#F5AA31"/>
	<stop  offset="0.9082" style="stop-color:#FCB91D"/>
	<stop  offset="1" style="stop-color:#FFBE15"/>
</linearGradient>
<polygon style="fill:url(#SVGID_00000030472137271318826870000012041942390536789949_);" points="284.3,151 201.3,196 118,150.3 
	117.7,59.5 200.6,14.5 283.9,60.2 "/>
</svg>
