<?xml version="1.0" encoding="utf-8"?>
<!-- Generator: Adobe Illustrator 27.3.1, SVG Export Plug-In . SVG Version: 6.00 Build 0)  -->
<svg version="1.1" id="Layer_1" xmlns="http://www.w3.org/2000/svg" xmlns:xlink="http://www.w3.org/1999/xlink" x="0px" y="0px"
	 viewBox="0 0 400 400" style="enable-background:new 0 0 400 400;" xml:space="preserve">
<style type="text/css">
	.st0{fill:url(#SVGID_1_);}
	.st1{fill:#5FC6FF;}
	.st2{fill:#FFDC48;}
	.st3{fill:#D861FF;}
</style>
<linearGradient id="SVGID_1_" gradientUnits="userSpaceOnUse" x1="58.6244" y1="200" x2="351.231" y2="200">
	<stop  offset="0" style="stop-color:#A915FF"/>
	<stop  offset="0.201" style="stop-color:#C144BE"/>
	<stop  offset="0.4093" style="stop-color:#D76F83"/>
	<stop  offset="0.6011" style="stop-color:#E89153"/>
	<stop  offset="0.7695" style="stop-color:#F5AA31"/>
	<stop  offset="0.9082" style="stop-color:#FCB91D"/>
	<stop  offset="1" style="stop-color:#FFBE15"/>
</linearGradient>
<path class="st0" d="M350.7,103.5c-1.1-1.8-3.4-2.4-5.3-1.3l-75.4,45.2l-71.3-40.9V20.3c0-2.1-1.7-3.8-3.8-3.8
	c-2.1,0-3.8,1.7-3.8,3.8v85.9l-72.6,42.2l-54.1-32.8c-1.8-1.1-4.2-0.5-5.3,1.3c-1.1,1.8-0.5,4.2,1.3,5.3l54.8,33.2l0.2,84.7
	l-52.4,31.4c-1.8,1.1-2.4,3.4-1.3,5.3c0.7,1.2,2,1.9,3.3,1.9c0.7,0,1.4-0.2,2-0.5l54.3-32.6l69.6,39.9v94.2c0,2.1,1.7,3.8,3.8,3.8
	c2.1,0,3.8-1.7,3.8-3.8v-93.9l67.1-39l51.7,31.4c0.6,0.4,1.3,0.6,2,0.6c1.3,0,2.6-0.7,3.3-1.8c1.1-1.8,0.5-4.2-1.3-5.3l-48.2-29.2
	l1.1-0.7l-0.2-87.9l75-45C351.2,107.7,351.8,105.3,350.7,103.5z M263.8,160.9l-65.1,33.6v80.2c0,2.1-1.7,3.8-3.8,3.8
	c-2.1,0-3.8-1.7-3.8-3.8v-80.2l-60.5-30.2c-1.9-0.9-2.7-3.3-1.7-5.1c0.9-1.9,3.3-2.7,5.1-1.7l60.8,30.4l65.6-33.9
	c2.1-1.1,4.7-0.1,5.4,2.3C266.5,158.1,265.5,160.1,263.8,160.9z"/>
<circle class="st1" cx="64.5" cy="120.7" r="19.2"/>
<circle class="st2" cx="347.6" cy="106.8" r="19.2"/>
<circle class="st3" cx="322.9" cy="273.9" r="28.7"/>
</svg>
